<svg xmlns="http://www.w3.org/2000/svg" viewBox="0 0 1000 620" role="img" aria-label="Nike">
  <g transform="translate(160 -24) scale(.72) translate(0 -636.09514)">
    <path d="m 261.1136,1052.3621 -105.96054,0 12.04591,-184.16797 -68.807783,184.16797 -98.391187,0 156.11382,-416.26707 104.69763,0 -12.08838,186.68913 70.11317,-186.68913 98.39023,0 -156.11287,416.26707" fill="#000"/>
    <path d="m 273.88892,1052.3621 156.11523,-416.26707 98.39026,0 -156.11523,416.26707 -98.39026,0" fill="#000"/>
    <path d="M 656.4214,1024.6114 650.11636,807.64827 798.87847,644.31684 Z M 973.5618,705.4717 1000,636.09503 l -300.21523,0 -103.09483,124.88037 47.59114,-124.88037 -99.6508,0 -154.85232,416.26707 98.39024,0 66.10966,-174.07661 4.52992,174.07661 301.89831,-0.6538 28.73973,-80.07707 -114.78901,0 37.71222,-100.91368 94.60627,0 29.10564,-77.57724 -94.60629,0 32.43403,-87.66861 99.65312,0" fill="#000"/>
  </g>
  <g transform="translate(26 254) scale(.93) translate(-135.5 -361.38)">
    <path d="M245.8075 717.62406c-29.79588-1.1837-54.1734-9.3368-73.23459-24.4796-3.63775-2.8928-12.30611-11.5663-15.21427-15.2245-7.72958-9.7193-12.98467-19.1785-16.48977-29.6734-10.7857-32.3061-5.23469-74.6989 15.87753-121.2243 18.0765-39.8316 45.96932-79.3366 94.63252-134.0508 7.16836-8.0511 28.51526-31.5969 28.65302-31.5969.051 0-1.11225 2.0153-2.57652 4.4694-12.65304 21.1938-23.47957 46.158-29.37751 67.7703-9.47448 34.6785-8.33163 64.4387 3.34693 87.5151 8.05611 15.898 21.86731 29.6684 37.3979 37.2806 27.18874 13.3214 66.9948 14.4235 115.60699 3.2245 3.34694-.7755 169.19363-44.801 368.55048-97.8366 199.35686-53.0408 362.49439-96.4029 362.51989-96.3672.056.046-463.16259 198.2599-703.62654 301.0914-38.08158 16.2806-48.26521 20.3928-66.16827 26.6785-45.76525 16.0714-86.76008 23.7398-119.89779 22.4235z" fill="#000"/>
  </g>
</svg>
